<svg width="768" height="690" viewBox="0 0 768 690" fill="none" xmlns="http://www.w3.org/2000/svg">
<rect width="768" height="690" fill="#DCDADA"/>
<rect x="41" y="97" width="685" height="525" fill="#F1F1F1"/>
<rect x="117" y="183" width="533" height="149" rx="10" fill="#E4E4E4"/>
<rect x="303" y="415" width="158" height="149" rx="10" fill="#D5D5D5"/>
<path d="M570.976 208.026L579.803 235.195C581.075 239.109 584.723 241.759 588.838 241.759H617.406C617.526 241.759 617.594 241.778 617.625 241.788C617.658 241.8 617.683 241.814 617.706 241.832C617.758 241.872 617.834 241.961 617.881 242.105C617.928 242.249 617.919 242.366 617.9 242.429C617.892 242.457 617.88 242.483 617.86 242.512C617.841 242.539 617.797 242.593 617.7 242.664L594.588 259.455C591.259 261.875 589.865 266.162 591.137 270.077L599.965 297.246C600.002 297.36 600.006 297.43 600.005 297.463C600.005 297.498 599.999 297.526 599.989 297.554C599.967 297.616 599.906 297.716 599.783 297.805C599.661 297.894 599.547 297.921 599.481 297.923C599.451 297.924 599.423 297.921 599.39 297.91C599.358 297.901 599.293 297.876 599.195 297.805L576.084 281.013C572.754 278.594 568.246 278.594 564.916 281.013L541.805 297.805C541.707 297.876 541.642 297.901 541.61 297.91C541.577 297.921 541.549 297.924 541.519 297.923C541.453 297.921 541.339 297.894 541.217 297.805C541.094 297.716 541.033 297.616 541.011 297.554C541.001 297.526 540.995 297.498 540.995 297.463C540.994 297.43 540.998 297.36 541.035 297.246L549.863 270.077C551.135 266.163 549.741 261.875 546.412 259.455L523.3 242.664C523.203 242.593 523.159 242.539 523.14 242.512C523.12 242.483 523.108 242.457 523.1 242.429C523.081 242.366 523.072 242.249 523.119 242.105C523.166 241.961 523.242 241.872 523.294 241.832C523.317 241.814 523.342 241.8 523.375 241.788C523.406 241.778 523.474 241.759 523.594 241.759H552.162C556.277 241.759 559.925 239.109 561.197 235.195L570.024 208.026C570.062 207.912 570.1 207.853 570.12 207.826C570.141 207.799 570.162 207.779 570.186 207.763C570.24 207.725 570.348 207.68 570.5 207.68C570.652 207.68 570.76 207.725 570.814 207.763C570.838 207.779 570.859 207.799 570.88 207.826C570.9 207.853 570.938 207.911 570.976 208.026Z" stroke="#7B7B7B" stroke-width="9"/>
<path d="M383.976 440.026L392.803 467.195C394.075 471.109 397.723 473.759 401.838 473.759H430.406C430.526 473.759 430.594 473.778 430.625 473.788C430.658 473.8 430.683 473.814 430.706 473.832C430.758 473.872 430.834 473.961 430.881 474.105C430.928 474.249 430.919 474.366 430.9 474.429C430.892 474.457 430.88 474.483 430.86 474.512C430.841 474.539 430.797 474.593 430.7 474.664L407.588 491.455C404.259 493.875 402.865 498.162 404.137 502.077L412.965 529.246C413.002 529.36 413.006 529.43 413.005 529.463C413.005 529.498 412.999 529.526 412.989 529.554C412.967 529.616 412.906 529.716 412.783 529.805C412.661 529.894 412.547 529.921 412.481 529.923C412.451 529.924 412.423 529.921 412.39 529.91C412.358 529.901 412.293 529.876 412.195 529.805L389.084 513.013C385.754 510.594 381.246 510.594 377.916 513.013L354.805 529.805C354.707 529.876 354.642 529.901 354.61 529.91C354.577 529.921 354.549 529.924 354.519 529.923C354.453 529.921 354.339 529.894 354.217 529.805C354.094 529.716 354.033 529.616 354.011 529.554C354.001 529.526 353.995 529.498 353.995 529.463C353.994 529.43 353.998 529.36 354.035 529.246L362.863 502.077C364.135 498.163 362.741 493.875 359.412 491.455L336.3 474.664C336.203 474.593 336.159 474.539 336.14 474.512C336.12 474.483 336.108 474.457 336.1 474.429C336.081 474.366 336.072 474.249 336.119 474.105C336.166 473.961 336.242 473.872 336.294 473.832C336.317 473.814 336.342 473.8 336.375 473.788C336.406 473.778 336.474 473.759 336.594 473.759H365.162C369.277 473.759 372.925 471.109 374.197 467.195L383.024 440.026C383.062 439.912 383.1 439.853 383.12 439.826C383.141 439.799 383.162 439.779 383.186 439.763C383.24 439.725 383.348 439.68 383.5 439.68C383.652 439.68 383.76 439.725 383.814 439.763C383.838 439.779 383.859 439.799 383.88 439.826C383.9 439.853 383.938 439.911 383.976 440.026Z" stroke="#7B7B7B" stroke-width="9"/>
<circle cx="384" cy="256" r="45" stroke="#7B7B7B" stroke-width="10"/>
<mask id="path-8-inside-1" fill="white">
<rect x="152" y="208" width="95" height="95" rx="5"/>
</mask>
<rect x="152" y="208" width="95" height="95" rx="5" stroke="#7B7B7B" stroke-width="20" mask="url(#path-8-inside-1)"/>
<path d="M631 369.108V323L669 351.924L654.162 355.07L662.848 376.127L654.162 380L643.667 359.427L631 369.108Z" fill="#4E4E4E" stroke="#4E4E4E" stroke-width="11"/>
</svg>
