<svg width="768" height="690" viewBox="0 0 768 690" fill="none" xmlns="http://www.w3.org/2000/svg">
<rect width="768" height="690" fill="#DCDADA"/>
<rect x="41" y="97" width="685" height="525" fill="#F1F1F1"/>
<rect x="96" y="136" width="256" height="436" rx="10" fill="#E4E4E4"/>
<rect width="256" height="436" rx="10" transform="matrix(1 0 0 -1 410 572)" fill="#B3B3B3"/>
<line x1="121" y1="233" x2="327" y2="233" stroke="#B2B2B2" stroke-width="6"/>
<line x1="121" y1="261" x2="327" y2="261" stroke="#B2B2B2" stroke-width="6"/>
<line x1="121" y1="289" x2="327" y2="289" stroke="#B2B2B2" stroke-width="6"/>
<line x1="121" y1="317" x2="327" y2="317" stroke="#B2B2B2" stroke-width="6"/>
<line x1="121" y1="343" x2="327" y2="343" stroke="#B2B2B2" stroke-width="6"/>
<line x1="121" y1="371" x2="327" y2="371" stroke="#B2B2B2" stroke-width="6"/>
<line x1="121" y1="395" x2="327" y2="395" stroke="#B2B2B2" stroke-width="6"/>
<line x1="121" y1="423" x2="327" y2="423" stroke="#B2B2B2" stroke-width="6"/>
<line x1="121" y1="451" x2="327" y2="451" stroke="#B2B2B2" stroke-width="6"/>
<line x1="121" y1="479" x2="327" y2="479" stroke="#B2B2B2" stroke-width="6"/>
<line x1="121" y1="505" x2="327" y2="505" stroke="#B2B2B2" stroke-width="6"/>
<line x1="121" y1="533" x2="327" y2="533" stroke="#B2B2B2" stroke-width="6"/>
<line x1="123" y1="170.5" x2="224" y2="170.5" stroke="#B2B2B2" stroke-width="5"/>
<line x1="123" y1="194.5" x2="224" y2="194.5" stroke="#B2B2B2" stroke-width="5"/>
<line x1="435" y1="233" x2="641" y2="233" stroke="#E4E4E4" stroke-width="6"/>
<line x1="435" y1="261" x2="641" y2="261" stroke="#E4E4E4" stroke-width="6"/>
<line x1="435" y1="289" x2="641" y2="289" stroke="#E4E4E4" stroke-width="6"/>
<line x1="435" y1="317" x2="641" y2="317" stroke="#E4E4E4" stroke-width="6"/>
<line x1="435" y1="343" x2="641" y2="343" stroke="#E4E4E4" stroke-width="6"/>
<line x1="435" y1="371" x2="641" y2="371" stroke="#E4E4E4" stroke-width="6"/>
<line x1="435" y1="395" x2="641" y2="395" stroke="#E4E4E4" stroke-width="6"/>
<line x1="435" y1="423" x2="641" y2="423" stroke="#E4E4E4" stroke-width="6"/>
<line x1="435" y1="451" x2="641" y2="451" stroke="#E4E4E4" stroke-width="6"/>
<line x1="435" y1="479" x2="641" y2="479" stroke="#E4E4E4" stroke-width="6"/>
<line x1="435" y1="505" x2="641" y2="505" stroke="#E4E4E4" stroke-width="6"/>
<line x1="435" y1="533" x2="641" y2="533" stroke="#E4E4E4" stroke-width="6"/>
<line x1="437" y1="170.5" x2="538" y2="170.5" stroke="#E4E4E4" stroke-width="5"/>
<line x1="437" y1="194.5" x2="538" y2="194.5" stroke="#E4E4E4" stroke-width="5"/>
</svg>
